# xmcd
#
# Track frame offsets:
#	150
#	20170
#	38092
#	51307
#	68325
#	83305
#	96637
#	117637
#	134165
#	142637
#	161517
#	172515
#	191695
#	209330
#	225747
#	245240
#	260905
#
# Disc length: 3698 seconds
#
# Revision: 1
# Processed by: cddbd v1.4PL0 Copyright (c) Steve Scherf et al.
# Submitted via: audiograbber 1.80
#
DISCID=f20e7011
DTITLE=Enya - The Best Of Enya - Paint The Sky With Stars
DYEAR=1900
DGENRE=
TTITLE0=Orinoco Flow
TTITLE1=Caribbean Blue
TTITLE2=Book Of Days
TTITLE3=Anywhere Is
TTITLE4=Only If...
TTITLE5=The Celts
TTITLE6=China Roses
TTITLE7=Sheperd Moons
TTITLE8=Ebudae
TTITLE9=Storms In Africa
TTITLE10=Watermark
TTITLE11=Paint The Sky With Stars
TTITLE12=Marble Halls
TTITLE13=On My Way Home
TTITLE14=The Memory Of Trees
TTITLE15=Boadicea
TTITLE16=Only Time
EXTD=Submit from -=< Gaiver >=
EXTT0=
EXTT1=
EXTT2=
EXTT3=
EXTT4=
EXTT5=
EXTT6=
EXTT7=
EXTT8=
EXTT9=
EXTT10=
EXTT11=
EXTT12=
EXTT13=
EXTT14=
EXTT15=
EXTT16=
PLAYORDER=
